<svg width="246" height="40" viewBox="0 0 246 40" fill="none" xmlns="http://www.w3.org/2000/svg">
<path d="M9.28 30V27.6H6.28V9.16C6.28 8.92 6.26667 8.68 6.24 8.44C6.21333 8.2 6.2 7.97333 6.2 7.76C6.33333 8 6.45333 8.18666 6.56 8.32C6.66667 8.45333 6.81333 8.64 7 8.88L18.4 23.8L29.44 9.44C29.6533 9.14667 29.8533 8.86667 30.04 8.6C30.2267 8.33333 30.4267 8.05333 30.64 7.76C30.6133 8.02667 30.5867 8.26667 30.56 8.48C30.56 8.66667 30.5467 8.89333 30.52 9.16V27.6H27.56V30H36.48V27.6H33.04V4.4H36.4V2H32.08C29.7867 4.96 27.5067 7.92 25.24 10.88C22.9733 13.84 20.6933 16.8 18.4 19.76C16.2667 17.0133 14.04 14.12 11.72 11.08C9.4 8.04 7.08 5.01333 4.76 2H0.4V4.4H3.76V27.6H0.4V30H9.28ZM52.8672 28C53.5872 27.3067 54.1472 26.4933 54.5472 25.56C54.9739 24.6 55.1872 23.5733 55.1872 22.48C55.1872 21.4133 54.9739 20.4 54.5472 19.44C54.1472 18.48 53.6005 17.64 52.9072 16.92C52.1605 16.2267 51.2939 15.68 50.3072 15.28C49.3472 14.8533 48.3205 14.64 47.2272 14.64C46.1072 14.64 45.0672 14.8533 44.1072 15.28C43.1472 15.68 42.3072 16.2267 41.5872 16.92C40.8672 17.64 40.2939 18.48 39.8672 19.44C39.4672 20.4 39.2672 21.4133 39.2672 22.48C39.2672 23.5733 39.4672 24.6 39.8672 25.56C40.2939 26.4933 40.8672 27.3067 41.5872 28C42.3072 28.72 43.1472 29.2933 44.1072 29.72C45.0672 30.12 46.1072 30.32 47.2272 30.32C48.3205 30.32 49.3472 30.12 50.3072 29.72C51.2939 29.2933 52.1472 28.72 52.8672 28ZM43.3872 26.28C42.8805 25.8 42.4805 25.24 42.1872 24.6C41.9205 23.96 41.7872 23.2533 41.7872 22.48C41.7872 21.76 41.9205 21.08 42.1872 20.44C42.4805 19.7733 42.8805 19.1867 43.3872 18.68C43.8672 18.2 44.4272 17.8267 45.0672 17.56C45.7072 17.2667 46.4005 17.12 47.1472 17.12C47.8939 17.12 48.5872 17.2667 49.2272 17.56C49.8939 17.8267 50.4805 18.2 50.9872 18.68C51.4672 19.1867 51.8405 19.7733 52.1072 20.44C52.4005 21.08 52.5472 21.7733 52.5472 22.52C52.5472 23.2667 52.4005 23.96 52.1072 24.6C51.8405 25.24 51.4672 25.8 50.9872 26.28C50.4805 26.7867 49.8939 27.1867 49.2272 27.48C48.5872 27.7467 47.8939 27.88 47.1472 27.88C46.4005 27.88 45.7072 27.7467 45.0672 27.48C44.4272 27.1867 43.8672 26.7867 43.3872 26.28ZM66.2981 30V27.6H63.5781V22.28C63.5781 21.5333 63.7248 20.8533 64.0181 20.24C64.3381 19.6 64.7648 19.0533 65.2981 18.6C65.8048 18.1467 66.3915 17.8 67.0581 17.56C67.7515 17.2933 68.4848 17.16 69.2581 17.16C70.3248 17.2133 71.1115 17.5333 71.6181 18.12C72.1515 18.68 72.4448 19.36 72.4981 20.16V27.6H69.4181V30H77.7381V27.6H75.0181V22.2C75.0181 21.48 75.1781 20.8133 75.4981 20.2C75.8181 19.5867 76.2448 19.0533 76.7781 18.6C77.2848 18.1467 77.8715 17.8 78.5381 17.56C79.2315 17.2933 79.9515 17.16 80.6981 17.16C81.7381 17.2133 82.5115 17.5333 83.0181 18.12C83.5515 18.68 83.8448 19.36 83.8981 20.16V27.6H80.8581V30H89.1781V27.6H86.4181V19.16C86.3648 17.8267 85.8981 16.7467 85.0181 15.92C84.1381 15.0933 82.9381 14.68 81.4181 14.68C79.9515 14.7067 78.6448 15.08 77.4981 15.8C76.3781 16.4933 75.5381 17.4533 74.9781 18.68C74.8181 17.48 74.2981 16.52 73.4181 15.8C72.5381 15.0533 71.3915 14.68 69.9781 14.68C68.4581 14.7067 67.1248 15.0933 65.9781 15.84C64.8581 16.5867 64.0181 17.6 63.4581 18.88C63.4048 18.32 63.3648 17.8267 63.3381 17.4C63.3115 16.9467 63.2848 16.44 63.2581 15.88L63.2181 15H58.2981V17.4H61.0581V27.6H57.9781V30H66.2981ZM119.315 30V27.6H116.315V4.4H123.675V8.16H126.075V2H103.955V8.16H106.355V4.4H113.795V27.6H110.435V30H119.315ZM142.477 28C143.197 27.3067 143.757 26.4933 144.157 25.56C144.583 24.6 144.797 23.5733 144.797 22.48C144.797 21.4133 144.583 20.4 144.157 19.44C143.757 18.48 143.21 17.64 142.517 16.92C141.77 16.2267 140.903 15.68 139.917 15.28C138.957 14.8533 137.93 14.64 136.837 14.64C135.717 14.64 134.677 14.8533 133.717 15.28C132.757 15.68 131.917 16.2267 131.197 16.92C130.477 17.64 129.903 18.48 129.477 19.44C129.077 20.4 128.877 21.4133 128.877 22.48C128.877 23.5733 129.077 24.6 129.477 25.56C129.903 26.4933 130.477 27.3067 131.197 28C131.917 28.72 132.757 29.2933 133.717 29.72C134.677 30.12 135.717 30.32 136.837 30.32C137.93 30.32 138.957 30.12 139.917 29.72C140.903 29.2933 141.757 28.72 142.477 28ZM132.997 26.28C132.49 25.8 132.09 25.24 131.797 24.6C131.53 23.96 131.397 23.2533 131.397 22.48C131.397 21.76 131.53 21.08 131.797 20.44C132.09 19.7733 132.49 19.1867 132.997 18.68C133.477 18.2 134.037 17.8267 134.677 17.56C135.317 17.2667 136.01 17.12 136.757 17.12C137.503 17.12 138.197 17.2667 138.837 17.56C139.503 17.8267 140.09 18.2 140.597 18.68C141.077 19.1867 141.45 19.7733 141.717 20.44C142.01 21.08 142.157 21.7733 142.157 22.52C142.157 23.2667 142.01 23.96 141.717 24.6C141.45 25.24 141.077 25.8 140.597 26.28C140.09 26.7867 139.503 27.1867 138.837 27.48C138.197 27.7467 137.503 27.88 136.757 27.88C136.01 27.88 135.317 27.7467 134.677 27.48C134.037 27.1867 133.477 26.7867 132.997 26.28ZM169.26 30C170.406 30 171.513 29.8533 172.58 29.56C173.646 29.24 174.606 28.7733 175.46 28.16C176.26 27.5733 176.9 26.84 177.38 25.96C177.886 25.0533 178.14 24 178.14 22.8C178.14 21.84 177.98 20.9733 177.66 20.2C177.34 19.4267 176.926 18.7467 176.42 18.16C175.86 17.5733 175.22 17.0933 174.5 16.72C173.78 16.3467 173.046 16.08 172.3 15.92C173.926 15.4667 175.14 14.6133 175.94 13.36C176.74 12.1067 177.14 10.6533 177.14 9C177.14 7.77333 176.926 6.72 176.5 5.84C176.1 4.93333 175.526 4.2 174.78 3.64C174.033 3.08 173.126 2.66667 172.06 2.4C170.993 2.13333 169.833 2 168.58 2H159.58V4.4H161.7V27.6H159.58V30H169.26ZM164.22 17.12H168.42C169.353 17.12 170.246 17.2267 171.1 17.44C171.98 17.6533 172.766 17.9733 173.46 18.4C174.1 18.8267 174.62 19.3867 175.02 20.08C175.42 20.7467 175.62 21.5467 175.62 22.48C175.62 23.3333 175.446 24.08 175.1 24.72C174.753 25.36 174.286 25.88 173.7 26.28C173.086 26.7333 172.38 27.0667 171.58 27.28C170.806 27.4933 169.966 27.6 169.06 27.6H164.22V17.12ZM164.22 4.4H168.86C169.686 4.4 170.433 4.49333 171.1 4.68C171.793 4.84 172.393 5.10667 172.9 5.48C173.433 5.85333 173.846 6.36 174.14 7C174.46 7.64 174.62 8.41333 174.62 9.32C174.62 10.92 174.113 12.2267 173.1 13.24C172.086 14.2267 170.713 14.72 168.98 14.72H164.22V4.4ZM199.867 30V27.6H196.867V15H194.787C194.76 15.4533 194.72 15.9067 194.667 16.36C194.64 16.8133 194.627 17.2533 194.627 17.68C194.307 16.9333 193.654 16.24 192.667 15.6C191.68 14.96 190.427 14.64 188.907 14.64C187.787 14.64 186.734 14.8533 185.747 15.28C184.787 15.7067 183.96 16.28 183.267 17C182.547 17.6933 181.974 18.52 181.547 19.48C181.147 20.44 180.947 21.4533 180.947 22.52C180.947 23.5867 181.147 24.6 181.547 25.56C181.974 26.4933 182.547 27.3067 183.267 28C183.96 28.72 184.787 29.2933 185.747 29.72C186.734 30.12 187.787 30.32 188.907 30.32C189.707 30.32 190.427 30.2267 191.067 30.04C191.734 29.8533 192.32 29.6 192.827 29.28C193.307 29.0133 193.694 28.72 193.987 28.4C194.307 28.08 194.52 27.7867 194.627 27.52C194.627 27.76 194.627 27.9733 194.627 28.16C194.627 28.3467 194.627 28.56 194.627 28.8V30H199.867ZM188.907 17.12C189.654 17.12 190.347 17.2533 190.987 17.52C191.654 17.76 192.227 18.12 192.707 18.6C193.214 19.0533 193.614 19.6267 193.907 20.32C194.2 20.9867 194.347 21.7067 194.347 22.48C194.347 23.2533 194.2 23.9867 193.907 24.68C193.614 25.3467 193.214 25.92 192.707 26.4C192.227 26.8533 191.654 27.2133 190.987 27.48C190.347 27.7467 189.654 27.88 188.907 27.88C188.187 27.88 187.52 27.76 186.907 27.52C186.32 27.28 185.8 26.96 185.347 26.56C184.76 26.08 184.307 25.4933 183.987 24.8C183.667 24.08 183.507 23.3067 183.507 22.48C183.507 21.7333 183.627 21.0533 183.867 20.44C184.107 19.8 184.467 19.24 184.947 18.76C185.4 18.2267 185.974 17.8267 186.667 17.56C187.36 17.2667 188.107 17.12 188.907 17.12ZM202.666 30H207.906V28.8C207.906 28.56 207.906 28.3467 207.906 28.16C207.906 27.9733 207.906 27.76 207.906 27.52C207.986 27.7867 208.186 28.08 208.506 28.4C208.826 28.72 209.239 29.0133 209.746 29.28C210.226 29.6 210.786 29.8533 211.426 30.04C212.092 30.2267 212.826 30.32 213.626 30.32C214.719 30.32 215.746 30.12 216.706 29.72C217.692 29.2933 218.546 28.72 219.266 28C219.986 27.3067 220.546 26.48 220.946 25.52C221.372 24.56 221.586 23.5467 221.586 22.48C221.586 21.4133 221.372 20.4133 220.946 19.48C220.546 18.52 219.986 17.68 219.266 16.96C218.546 16.24 217.692 15.68 216.706 15.28C215.746 14.8533 214.719 14.64 213.626 14.64C212.879 14.64 212.186 14.7467 211.546 14.96C210.906 15.1467 210.332 15.3867 209.826 15.68C209.319 16 208.932 16.3067 208.666 16.6C208.399 16.8933 208.212 17.1733 208.106 17.44C208.132 17.1467 208.146 16.9067 208.146 16.72C208.172 16.5333 208.186 16.2933 208.186 16V-2.38419e-06H202.946V2.4H205.666V27.6H202.666V30ZM213.626 17.12C214.346 17.12 215.026 17.2533 215.666 17.52C216.332 17.76 216.906 18.0933 217.386 18.52C217.892 19 218.292 19.5867 218.586 20.28C218.879 20.9467 219.026 21.68 219.026 22.48C219.026 23.2533 218.879 23.9733 218.586 24.64C218.319 25.28 217.946 25.84 217.466 26.32C216.986 26.8 216.412 27.1867 215.746 27.48C215.106 27.7467 214.399 27.88 213.626 27.88C212.879 27.88 212.186 27.7467 211.546 27.48C210.906 27.2133 210.332 26.8667 209.826 26.44C209.319 25.9333 208.919 25.3467 208.626 24.68C208.332 23.9867 208.186 23.2533 208.186 22.48C208.186 21.76 208.306 21.08 208.546 20.44C208.812 19.8 209.172 19.24 209.626 18.76C210.106 18.2267 210.679 17.8267 211.346 17.56C212.039 17.2667 212.799 17.12 213.626 17.12ZM234.984 40V37.6H232.744C234.424 34.2133 236.104 30.8533 237.784 27.52C239.464 24.16 241.158 20.7867 242.864 17.4H245.944V15H237.824V17.4H240.224C239.344 19.1333 238.464 20.8667 237.584 22.6C236.704 24.3333 235.931 26.04 235.264 27.72C234.544 25.9867 233.744 24.2667 232.864 22.56C231.984 20.8533 231.104 19.1333 230.224 17.4H232.544V15H224.384V17.4H227.624C228.691 19.5333 229.744 21.6533 230.784 23.76C231.824 25.84 232.878 27.9333 233.944 30.04C233.304 31.2933 232.664 32.5467 232.024 33.8C231.411 35.0533 230.784 36.32 230.144 37.6H226.664V40H234.984Z" fill="black"/>
</svg>
